# xmcd
#
# Track frame offsets: 
#        150
#        13373
#        33123
#        53978
#        76828
#        92308
#        102788
#        125870
#        140838
#        156853
#        170993
#        185088
#        197908
#        213808
#        234403
#        248700
#        264508
#        280370
#        304680
#        323788
#
# Disc length: 4526 seconds
#
# Revision: 3
# Processed by: cddbd v1.5.2PL0 Copyright (c) Steve Scherf et al.
# Submitted via: ExactAudioCopy v0.90b4
#
DISCID=1f11ac14
DTITLE=John Prine - The John Prine Anthology - Great Days [CD2]
DYEAR=1993
DGENRE=Folk
TTITLE0=Sabu Visits the Twin Cities Alone
TTITLE1=Automobile
TTITLE2=Killing the Blues
TTITLE3=Down by the Side of the Road
TTITLE4=Living in the Future
TTITLE5=It's Happening to You
TTITLE6=Storm Windows
TTITLE7=One Red Rose
TTITLE8=Souvenirs (feat. Steve Goodman)
TTITLE9=Aimless Love
TTITLE10=The Oldest Baby in the World
TTITLE11=People Puttin' People Down
TTITLE12=Unwed Fathers
TTITLE13=Angel from Montgomery (feat. Bonnie Raitt)
TTITLE14=Linda Goes to Mars
TTITLE15=Bad Boy
TTITLE16=Speed of the Sound of Loneliness
TTITLE17=It's a Big Old Goofy World
TTITLE18=The Sins of Memphisto
TTITLE19=All the Best
EXTD=
EXTT0=
EXTT1=
EXTT2=
EXTT3=
EXTT4=
EXTT5=
EXTT6=
EXTT7=
EXTT8=
EXTT9=
EXTT10=
EXTT11=
EXTT12=
EXTT13=
EXTT14=
EXTT15=
EXTT16=
EXTT17=
EXTT18=
EXTT19=
PLAYORDER=
